<?xml version="1.0" encoding="UTF-8" standalone="no"?><!DOCTYPE svg PUBLIC "-//W3C//DTD SVG 1.1//EN" "http://www.w3.org/Graphics/SVG/1.1/DTD/svg11.dtd"><svg width="100%" height="100%" viewBox="0 0 20 20" version="1.1" xmlns="http://www.w3.org/2000/svg" xmlns:xlink="http://www.w3.org/1999/xlink" xml:space="preserve" xmlns:serif="http://www.serif.com/" style="fill-rule:evenodd;clip-rule:evenodd;stroke-linejoin:round;stroke-miterlimit:2;"><g id="Ebene1"><rect x="0.021" y="-0.023" width="19.977" height="20" style="fill:#95bbdf;"/></g><path d="M10,10c2.194,0 4,-1.806 4,-4c0,-2.194 -1.806,-4 -4,-4c-2.194,0 -4,1.806 -4,4c0,2.194 1.806,4 4,4Zm-1.428,1.5c-3.078,0 -5.572,2.494 -5.572,5.572c0,0.512 0.416,0.928 0.928,0.928l12.144,0c0.512,0 0.928,-0.416 0.928,-0.928c0,-3.078 -2.494,-5.572 -5.572,-5.572l-2.856,0Z" style="fill:#fff;fill-rule:nonzero;"/></svg>