<?xml version="1.0" encoding="UTF-8" standalone="no"?>
<!-- Generated by IcoMoon.io -->

<svg
   xmlns:dc="http://purl.org/dc/elements/1.1/"
   xmlns:cc="http://creativecommons.org/ns#"
   xmlns:rdf="http://www.w3.org/1999/02/22-rdf-syntax-ns#"
   xmlns:svg="http://www.w3.org/2000/svg"
   xmlns="http://www.w3.org/2000/svg"
   xmlns:sodipodi="http://sodipodi.sourceforge.net/DTD/sodipodi-0.dtd"
   xmlns:inkscape="http://www.inkscape.org/namespaces/inkscape"
   version="1.1"
   width="384"
   height="448"
   viewBox="0 0 384 448"
   id="svg7"
   sodipodi:docname="file_dc.svg"
   inkscape:version="0.92.1 r15371">
  <metadata
     id="metadata13">
    <rdf:RDF>
      <cc:Work
         rdf:about="">
        <dc:format>image/svg+xml</dc:format>
        <dc:type
           rdf:resource="http://purl.org/dc/dcmitype/StillImage" />
        <dc:title />
      </cc:Work>
    </rdf:RDF>
  </metadata>
  <defs
     id="defs11" />
  <sodipodi:namedview
     pagecolor="#ffffff"
     bordercolor="#666666"
     borderopacity="1"
     objecttolerance="10"
     gridtolerance="10"
     guidetolerance="10"
     inkscape:pageopacity="0"
     inkscape:pageshadow="2"
     inkscape:window-width="1920"
     inkscape:window-height="1017"
     id="namedview9"
     showgrid="false"
     inkscape:zoom="1.0535715"
     inkscape:cx="192"
     inkscape:cy="219.39394"
     inkscape:window-x="1272"
     inkscape:window-y="-8"
     inkscape:window-maximized="1"
     inkscape:current-layer="svg7" />
  <g
     id="icomoon-ignore" />
  <path
     d="M367 95c9.25 9.25 17 27.75 17 41v288c0 13.25-10.75 24-24 24h-336c-13.25 0-24-10.75-24-24v-400c0-13.25 10.75-24 24-24h224c13.25 0 31.75 7.75 41 17zM256 34v94h94c-1.5-4.25-3.75-8.5-5.5-10.25l-78.25-78.25c-1.75-1.75-6-4-10.25-5.5zM352 416v-256h-104c-13.25 0-24-10.75-24-24v-104h-192v384h320z"
     id="path5"
     style="fill:#1a1a1a" />
  <rect
     id="rect3685"
     width="289.93774"
     height="149.66695"
     x="48.32296"
     y="188.2641"
     style="fill:#1a1a1a" />
  <flowRoot
     xml:space="preserve"
     id="flowRoot3687"
     style="fill:#ffffff;fill-opacity:1;stroke:none;font-family:sans-serif;font-style:normal;font-weight:normal;font-size:40px;line-height:1.25;letter-spacing:0px;word-spacing:0px;"><flowRegion
       id="flowRegion3689"
       style="fill:#ffffff;"><rect
         id="rect3691"
         width="251.68207"
         height="110.74011"
         x="69.128677"
         y="214.43904"
         style="fill:#ffffff;" /></flowRegion><flowPara
       id="flowPara3693" /></flowRoot>  <text
     xml:space="preserve"
     style="font-style:normal;font-weight:normal;font-size:191.63136292px;line-height:1.25;font-family:sans-serif;letter-spacing:0px;word-spacing:0px;fill:#000000;fill-opacity:1;stroke:none;stroke-width:4.79078484"
     x="33.330128"
     y="354.68042"
     id="text3697"
     transform="scale(1.0793658,0.92646993)"><tspan
       sodipodi:role="line"
       id="tspan3695"
       x="33.330128"
       y="354.68042"
       style="fill:#ffffff;stroke-width:4.79078484">DC</tspan></text>
</svg>
