<?xml version="1.0" encoding="UTF-8" standalone="no"?>
<!-- Generated by IcoMoon.io -->

<svg
   xmlns:dc="http://purl.org/dc/elements/1.1/"
   xmlns:cc="http://creativecommons.org/ns#"
   xmlns:rdf="http://www.w3.org/1999/02/22-rdf-syntax-ns#"
   xmlns:svg="http://www.w3.org/2000/svg"
   xmlns="http://www.w3.org/2000/svg"
   xmlns:sodipodi="http://sodipodi.sourceforge.net/DTD/sodipodi-0.dtd"
   xmlns:inkscape="http://www.inkscape.org/namespaces/inkscape"
   version="1.1"
   width="384"
   height="448"
   viewBox="0 0 384 448"
   id="svg7"
   sodipodi:docname="file_all.svg"
   inkscape:version="0.92.1 r15371">
  <metadata
     id="metadata13">
    <rdf:RDF>
      <cc:Work
         rdf:about="">
        <dc:format>image/svg+xml</dc:format>
        <dc:type
           rdf:resource="http://purl.org/dc/dcmitype/StillImage" />
        <dc:title />
      </cc:Work>
    </rdf:RDF>
  </metadata>
  <defs
     id="defs11" />
  <sodipodi:namedview
     pagecolor="#ffffff"
     bordercolor="#666666"
     borderopacity="1"
     objecttolerance="10"
     gridtolerance="10"
     guidetolerance="10"
     inkscape:pageopacity="0"
     inkscape:pageshadow="2"
     inkscape:window-width="1920"
     inkscape:window-height="1017"
     id="namedview9"
     showgrid="false"
     inkscape:zoom="0.52678571"
     inkscape:cx="192"
     inkscape:cy="192.54785"
     inkscape:window-x="1272"
     inkscape:window-y="-8"
     inkscape:window-maximized="1"
     inkscape:current-layer="svg7" />
  <g
     id="icomoon-ignore" />
  <path
     d="M367 95c9.25 9.25 17 27.75 17 41v288c0 13.25-10.75 24-24 24h-336c-13.25 0-24-10.75-24-24v-400c0-13.25 10.75-24 24-24h224c13.25 0 31.75 7.75 41 17zM256 34v94h94c-1.5-4.25-3.75-8.5-5.5-10.25l-78.25-78.25c-1.75-1.75-6-4-10.25-5.5zM352 416v-256h-104c-13.25 0-24-10.75-24-24v-104h-192v384h320z"
     id="path5"
     style="fill:#1a1a1a" />
  <flowRoot
     xml:space="preserve"
     id="flowRoot3687"
     style="fill:#ffffff;fill-opacity:1;stroke:none;font-family:sans-serif;font-style:normal;font-weight:normal;font-size:40px;line-height:1.25;letter-spacing:0px;word-spacing:0px;"><flowRegion
       id="flowRegion3689"
       style="fill:#ffffff;"><rect
         id="rect3691"
         width="251.68207"
         height="110.74011"
         x="69.128677"
         y="214.43904"
         style="fill:#ffffff;" /></flowRegion><flowPara
       id="flowPara3693" /></flowRoot>  <g
     aria-label="ALL "
     transform="matrix(1.7053159,0,0,1.4411413,-124.25849,-88.403923)"
     style="font-style:normal;font-weight:normal;font-size:40px;line-height:1.25;font-family:sans-serif;letter-spacing:0px;word-spacing:0px;fill:#1a1a1a;fill-opacity:1;stroke:none"
     id="flowRoot3699">
    <path
       d="m 114.24512,247.89827 -6.32813,16.17188 h 6.9375 v 4.64062 H 98.260742 v -4.64062 h 4.031248 l 25.92188,-65.90625 h 5.57812 l 25.92188,65.90625 h 4.03125 v 4.64062 h -20.90625 v -4.64062 h 6.32812 l -6.375,-16.17188 z m 1.82812,-4.64062 h 24.89063 l -12.46875,-31.64063 z"
       style="font-style:normal;font-variant:normal;font-weight:normal;font-stretch:normal;font-size:96px;font-family:'Lucida Fax';-inkscape-font-specification:'Lucida Fax';text-align:center;text-anchor:middle;fill:#1a1a1a"
       id="path40" />
    <path
       d="m 218.72949,268.71077 h -48.5625 v -4.64062 h 6.9375 v -60.14063 h -6.9375 v -4.59375 h 23.10938 v 4.59375 h -6.32813 v 59.57813 h 26.01563 v -8.67188 h 5.76562 z"
       style="font-style:normal;font-variant:normal;font-weight:normal;font-stretch:normal;font-size:96px;font-family:'Lucida Fax';-inkscape-font-specification:'Lucida Fax';text-align:center;text-anchor:middle;fill:#1a1a1a"
       id="path42" />
    <path
       d="m 273.66699,268.71077 h -48.5625 v -4.64062 h 6.9375 v -60.14063 h -6.9375 v -4.59375 h 23.10938 v 4.59375 h -6.32813 v 59.57813 h 26.01563 v -8.67188 h 5.76562 z"
       style="font-style:normal;font-variant:normal;font-weight:normal;font-stretch:normal;font-size:96px;font-family:'Lucida Fax';-inkscape-font-specification:'Lucida Fax';text-align:center;text-anchor:middle;fill:#1a1a1a"
       id="path44" />
  </g>
  <g
     aria-label="DATASHEET"
     transform="matrix(1.3097344,0,0,1.4436797,-64.263952,-115.73324)"
     style="font-style:normal;font-weight:normal;font-size:40px;line-height:1.25;font-family:sans-serif;letter-spacing:0px;word-spacing:0px;fill:#1a1a1a;fill-opacity:1;stroke:none"
     id="flowRoot3709">
    <path
       d="m 85.748047,302.43555 v 22.67578 h 4.765625 q 6.035156,0 8.828125,-2.73438 2.812503,-2.73437 2.812503,-8.63281 0,-5.85937 -2.812503,-8.57422 -2.792969,-2.73437 -8.828125,-2.73437 z m -3.945313,-3.24219 h 8.105469 q 8.476563,0 12.441407,3.53516 3.96484,3.51562 3.96484,11.01562 0,7.53906 -3.98437,11.07422 -3.984377,3.53516 -12.421877,3.53516 h -8.105469 z"
       style="text-align:center;text-anchor:middle;fill:#1a1a1a"
       id="path21" />
    <path
       d="m 121.62695,303.08008 -5.35156,14.51172 h 10.72266 z m -2.22656,-3.88672 h 4.47266 l 11.11328,29.16016 h -4.10156 l -2.65625,-7.48047 h -13.14454 l -2.65625,7.48047 h -4.16015 z"
       style="text-align:center;text-anchor:middle;fill:#1a1a1a"
       id="path23" />
    <path
       d="m 132.05664,299.19336 h 24.66797 v 3.32031 h -10.35156 v 25.83985 h -3.96485 v -25.83985 h -10.35156 z"
       style="text-align:center;text-anchor:middle;fill:#1a1a1a"
       id="path25" />
    <path
       d="m 167.17383,303.08008 -5.35156,14.51172 h 10.72265 z m -2.22656,-3.88672 h 4.47265 l 11.11328,29.16016 h -4.10156 l -2.65625,-7.48047 h -13.14453 l -2.65625,7.48047 h -4.16016 z"
       style="text-align:center;text-anchor:middle;fill:#1a1a1a"
       id="path27" />
    <path
       d="m 202.25195,300.15039 v 3.84766 q -2.24609,-1.07422 -4.23828,-1.60157 -1.99219,-0.52734 -3.84765,-0.52734 -3.22266,0 -4.98047,1.25 -1.73828,1.25 -1.73828,3.55469 0,1.93359 1.15234,2.92969 1.17187,0.97656 4.41406,1.58203 l 2.38281,0.48828 q 4.41407,0.83984 6.50391,2.96875 2.10938,2.10937 2.10938,5.66406 0,4.23828 -2.85157,6.42578 -2.83203,2.1875 -8.32031,2.1875 -2.07031,0 -4.41406,-0.46875 -2.32422,-0.46875 -4.82422,-1.38672 v -4.0625 q 2.40234,1.34766 4.70703,2.03125 2.30469,0.6836 4.53125,0.6836 3.37891,0 5.21484,-1.32813 1.83594,-1.32812 1.83594,-3.78906 0,-2.14844 -1.32812,-3.35938 -1.3086,-1.21093 -4.31641,-1.8164 l -2.40234,-0.46875 q -4.41407,-0.87891 -6.38672,-2.75391 -1.97266,-1.875 -1.97266,-5.21484 0,-3.86719 2.71485,-6.09375 2.73437,-2.22656 7.51953,-2.22656 2.05078,0 4.17968,0.37109 2.12891,0.37109 4.35547,1.11328 z"
       style="text-align:center;text-anchor:middle;fill:#1a1a1a"
       id="path29" />
    <path
       d="m 210.16211,299.19336 h 3.94531 v 11.95312 h 14.33594 v -11.95312 h 3.94531 v 29.16016 h -3.94531 V 314.4668 h -14.33594 v 13.88672 h -3.94531 z"
       style="text-align:center;text-anchor:middle;fill:#1a1a1a"
       id="path31" />
    <path
       d="m 240.24023,299.19336 h 18.4375 v 3.32031 h -14.49218 v 8.63281 h 13.88672 v 3.32032 h -13.88672 v 10.5664 h 14.84375 v 3.32032 h -18.78907 z"
       style="text-align:center;text-anchor:middle;fill:#1a1a1a"
       id="path33" />
    <path
       d="m 265.55273,299.19336 h 18.4375 v 3.32031 h -14.49218 v 8.63281 h 13.88672 v 3.32032 h -13.88672 v 10.5664 h 14.84375 v 3.32032 h -18.78907 z"
       style="text-align:center;text-anchor:middle;fill:#1a1a1a"
       id="path35" />
    <path
       d="m 286.82227,299.19336 h 24.66796 v 3.32031 h -10.35156 v 25.83985 h -3.96484 v -25.83985 h -10.35156 z"
       style="text-align:center;text-anchor:middle;fill:#1a1a1a"
       id="path37" />
  </g>
</svg>
